<svg width="34" height="34" viewBox="0 0 34 34" fill="none" xmlns="http://www.w3.org/2000/svg">
<path d="M34 1.87455V32.1179C34 33.1576 33.1576 33.9924 32.1254 33.9924H23.4585V20.8326H27.8754L28.5357 15.7022H23.4509V12.4237C23.4509 10.9362 23.8607 9.92679 25.9933 9.92679H28.7103V5.33527C28.2397 5.27455 26.6308 5.13036 24.7487 5.13036C20.8326 5.13036 18.146 7.52098 18.146 11.9152V15.7022H13.7138V20.8326H18.146V34H1.87455C0.842411 34 0 33.1576 0 32.1254V1.87455C0 0.842411 0.842411 0 1.87455 0H32.1179C33.1576 0 34 0.842411 34 1.87455Z" fill="white"/>
</svg>
