<svg width="33" height="34" viewBox="0 0 33 34" fill="none" xmlns="http://www.w3.org/2000/svg">
<path d="M16.5037 8.28283C11.8215 8.28283 8.04479 12.1748 8.04479 17C8.04479 21.8252 11.8215 25.7172 16.5037 25.7172C21.1859 25.7172 24.9626 21.8252 24.9626 17C24.9626 12.1748 21.1859 8.28283 16.5037 8.28283ZM16.5037 22.6673C13.4779 22.6673 11.0043 20.1257 11.0043 17C11.0043 13.8743 13.4706 11.3327 16.5037 11.3327C19.5368 11.3327 22.0031 13.8743 22.0031 17C22.0031 20.1257 19.5294 22.6673 16.5037 22.6673ZM27.2816 7.92625C27.2816 9.05668 26.3982 9.9595 25.3086 9.9595C24.2117 9.9595 23.3356 9.04909 23.3356 7.92625C23.3356 6.80341 24.219 5.893 25.3086 5.893C26.3982 5.893 27.2816 6.80341 27.2816 7.92625ZM32.8841 9.98985C32.7589 7.26621 32.1552 4.85362 30.219 2.86589C28.2902 0.878166 25.9491 0.256053 23.3061 0.119491C20.5822 -0.0398304 12.4178 -0.0398304 9.69387 0.119491C7.05828 0.248466 4.71718 0.870579 2.78098 2.85831C0.844785 4.84603 0.248466 7.25862 0.115951 9.98226C-0.0386503 12.7894 -0.0386503 21.2031 0.115951 24.0102C0.241104 26.7338 0.844785 29.1464 2.78098 31.1341C4.71718 33.1218 7.05092 33.7439 9.69387 33.8805C12.4178 34.0398 20.5822 34.0398 23.3061 33.8805C25.9491 33.7515 28.2902 33.1294 30.219 31.1341C32.1479 29.1464 32.7515 26.7338 32.8841 24.0102C33.0387 21.2031 33.0387 12.7969 32.8841 9.98985ZM29.365 27.0221C28.7908 28.5091 27.6791 29.6547 26.2288 30.254C24.0571 31.1417 18.9037 30.9369 16.5037 30.9369C14.1037 30.9369 8.94294 31.1341 6.77853 30.254C5.33558 29.6623 4.22393 28.5167 3.64233 27.0221C2.78098 24.784 2.97975 19.4733 2.97975 17C2.97975 14.5267 2.78834 9.20841 3.64233 6.97791C4.21656 5.49091 5.32822 4.34531 6.77853 3.74596C8.95031 2.85831 14.1037 3.06315 16.5037 3.06315C18.9037 3.06315 24.0644 2.86589 26.2288 3.74596C27.6718 4.33772 28.7834 5.48332 29.365 6.97791C30.2264 9.216 30.0276 14.5267 30.0276 17C30.0276 19.4733 30.2264 24.7916 29.365 27.0221Z" fill="white"/>
</svg>
