<svg width="35" height="34" viewBox="0 0 35 34" fill="none" xmlns="http://www.w3.org/2000/svg">
<path d="M31.0971 13.0203C29.9906 13.0203 29.0168 13.4907 28.3013 14.2267C25.6677 12.3526 22.1194 11.1462 18.1875 11.0172L20.2309 1.54787L26.7374 3.05021C26.7374 4.68913 28.0357 6.02455 29.6291 6.02455C31.252 6.02455 32.5578 4.65119 32.5578 3.01227C32.5578 1.37335 31.2594 0 29.6291 0C28.4931 0 27.5119 0.705646 27.0251 1.66927L19.84 0.0303503C19.4785 -0.0682884 19.1244 0.197278 19.0285 0.56907L16.7859 11.0096C12.8836 11.1765 9.37215 12.383 6.73122 14.2571C6.01566 13.4907 5.00502 13.0203 3.89848 13.0203C-0.203073 13.0203 -1.54567 18.6807 2.20917 20.6155C2.07639 21.2149 2.01737 21.8523 2.01737 22.4896C2.01737 28.848 8.98117 34 17.531 34C26.1177 34 33.0815 28.848 33.0815 22.4896C33.0815 21.8523 33.0151 21.1846 32.8528 20.5851C36.5339 18.6427 35.1765 13.0203 31.0971 13.0203ZM8.16233 21.0176C8.16233 19.3484 9.46067 18.0054 11.091 18.0054C12.6844 18.0054 13.9827 19.3408 13.9827 21.0176C13.9827 22.6566 12.6844 23.992 11.091 23.992C9.46805 23.9996 8.16233 22.6566 8.16233 21.0176ZM23.971 28.112C21.2858 30.8739 13.7098 30.8739 11.0246 28.112C10.7295 27.8465 10.7295 27.376 11.0246 27.0725C11.2828 26.807 11.7401 26.807 11.9983 27.0725C14.0491 29.235 20.8506 29.2729 22.9899 27.0725C23.2481 26.807 23.7055 26.807 23.9637 27.0725C24.2661 27.376 24.2661 27.8465 23.971 28.112ZM23.912 23.9996C22.3186 23.9996 21.0203 22.6641 21.0203 21.0252C21.0203 19.3559 22.3186 18.0129 23.912 18.0129C25.5349 18.0129 26.8407 19.3484 26.8407 21.0252C26.8333 22.6566 25.5349 23.9996 23.912 23.9996Z" fill="white"/>
</svg>
