<svg width="36" height="34" viewBox="0 0 36 34" fill="none" xmlns="http://www.w3.org/2000/svg">
<path d="M35.808 26.6541C35.4427 27.5128 33.8987 28.1437 31.0864 28.5837C30.9417 28.7805 30.8218 29.6211 30.6303 30.2759C30.5164 30.669 30.2361 30.9023 29.7802 30.9023L29.7593 30.902C29.1008 30.902 28.4133 30.5966 27.036 30.5966C25.177 30.5966 24.5363 31.0235 23.0929 32.0509C21.5626 33.1414 20.0948 34.0827 17.9039 33.9863C15.6857 34.1511 13.8367 32.7919 12.796 32.0505C11.3441 31.0162 10.7052 30.5967 8.8538 30.5967C7.53153 30.5967 6.69936 30.9301 6.13046 30.9301C5.56458 30.9301 5.34449 30.5824 5.25974 30.2916C5.07027 29.6425 4.95104 28.7896 4.80251 28.5871C3.35301 28.3604 0.0844011 27.7858 0.00112799 26.3161C-0.00896571 26.1315 0.0489587 25.9495 0.163791 25.8052C0.278623 25.6609 0.442277 25.5644 0.623363 25.5343C5.5008 24.7251 7.69765 19.6784 7.78899 19.4642C7.79417 19.4518 7.79985 19.4399 7.8056 19.4278C8.06586 18.8954 8.12411 18.4496 7.97824 18.1032C7.62426 17.2629 6.09464 16.9614 5.4511 16.7049C3.78879 16.0433 3.55748 15.2831 3.65582 14.7621C3.82664 13.8554 5.17864 13.2974 5.9691 13.6705C6.59428 13.9659 7.14972 14.1153 7.61964 14.1153C7.97165 14.1153 8.19526 14.0303 8.31778 13.962C8.17458 11.4236 7.82004 7.79614 8.71642 5.77036C11.0837 0.421911 16.1014 0.00628662 17.5818 0.00628662C17.648 0.00628662 18.2226 0 18.2905 0C21.9458 0 25.458 1.89164 27.1732 5.76696C28.0688 7.7907 27.7164 11.4032 27.5724 13.9614C27.6833 14.023 27.8778 14.0986 28.1751 14.1125C28.6235 14.0923 29.1435 13.9438 29.7221 13.6705C30.1486 13.4695 30.7319 13.4967 31.1576 13.6746L31.1596 13.6753C31.8239 13.9144 32.2418 14.3969 32.2524 14.9376C32.2653 15.6261 31.655 16.2207 30.4384 16.7048C30.29 16.7638 30.1094 16.8217 29.9173 16.8832C29.2306 17.1025 28.193 17.4345 27.9115 18.1031C27.7658 18.4495 27.8235 18.895 28.0839 19.4274C28.09 19.4393 28.0956 19.4516 28.1007 19.4638C28.1919 19.6778 30.3868 24.7234 35.2665 25.5338C35.717 25.6086 36.049 26.0902 35.808 26.6541Z" fill="white"/>
</svg>
