<svg width="42" height="34" viewBox="0 0 42 34" fill="none" xmlns="http://www.w3.org/2000/svg">
<path d="M37.3934 8.47341C37.4199 8.84526 37.4199 9.2172 37.4199 9.58906C37.4199 20.9312 28.8253 34 13.1168 34C8.27731 34 3.78167 32.5921 0 30.1485C0.687599 30.2281 1.34866 30.2547 2.06271 30.2547C6.05587 30.2547 9.7318 28.9 12.6672 26.5891C8.912 26.5094 5.76502 24.0391 4.68075 20.6391C5.2097 20.7187 5.73856 20.7718 6.29397 20.7718C7.06085 20.7718 7.82782 20.6655 8.54179 20.4797C4.62792 19.6828 1.69242 16.2297 1.69242 12.0594V11.9531C2.82952 12.5907 4.15189 12.9891 5.55337 13.0421C3.25264 11.5015 1.74533 8.87184 1.74533 5.89682C1.74533 4.30309 2.16837 2.84216 2.90888 1.56715C7.11368 6.77339 13.4341 10.1733 20.5213 10.5453C20.3891 9.90777 20.3098 9.24378 20.3098 8.5797C20.3098 3.85152 24.1179 0 28.8515 0C31.3109 0 33.5323 1.03593 35.0926 2.70937C37.023 2.33752 38.8742 1.62029 40.5139 0.637505C39.8791 2.62974 38.5304 4.30318 36.7586 5.3656C38.4776 5.17976 40.1437 4.70152 41.6774 4.03753C40.514 5.73746 39.0595 7.25146 37.3934 8.47341Z" fill="white"/>
</svg>
